<svg width="115" height="54" viewBox="0 0 115 54" fill="none" xmlns="http://www.w3.org/2000/svg">
<path d="M46.9932 25.6958V14.1162H49.7137C50.4894 14.1162 51.0581 14.1606 51.4195 14.2473C51.781 14.3339 52.0981 14.484 52.3729 14.6933C52.7153 14.9617 52.9817 15.3211 53.1719 15.7735C53.3621 16.2237 53.4573 16.7247 53.4573 17.2722C53.4573 18.2213 53.1909 18.9421 52.6625 19.4346C52.1319 19.9271 51.3561 20.1745 50.333 20.1745H50.0878L54.51 25.6958H52.7618L48.5384 20.1745H48.3397V25.6958H46.9953H46.9932ZM48.3376 15.2788V19.1556H49.3903C50.4662 19.1556 51.1849 19.0161 51.5506 18.7413C51.9142 18.4644 52.096 17.9803 52.096 17.2891C52.096 16.545 51.9078 16.025 51.5337 15.727C51.1595 15.4289 50.4451 15.2809 49.3903 15.2809H48.3376V15.2788Z" fill="#1A2A49"/>
<path d="M62.276 18.4578V25.6955H61.0733V24.3828C60.7837 24.9113 60.4138 25.3129 59.9614 25.5898C59.509 25.8668 59.0059 26.0042 58.4458 26.0042C57.4058 26.0042 56.5687 25.6469 55.9345 24.9324C55.2983 24.218 54.9812 23.2731 54.9812 22.0978C54.9812 20.9225 55.2898 19.9586 55.9071 19.2547C56.5243 18.5508 57.3487 18.1978 58.3824 18.1978C58.989 18.1978 59.5154 18.333 59.9614 18.6057C60.4074 18.8763 60.7668 19.2822 61.0416 19.8191V18.4578H62.276ZM61.0733 22.1443C61.0733 21.3262 60.8513 20.6688 60.4053 20.17C59.9593 19.6711 59.378 19.4217 58.6614 19.4217C57.9448 19.4217 57.3381 19.6521 56.9217 20.1108C56.5053 20.5695 56.296 21.21 56.296 22.0323C56.296 22.9074 56.5053 23.5838 56.9238 24.0573C57.3424 24.5329 57.9385 24.7697 58.7079 24.7697C59.4773 24.7697 60.0248 24.5393 60.4434 24.0784C60.8619 23.6176 61.0712 22.9729 61.0712 22.1443H61.0733Z" fill="#1A2A49"/>
<path d="M74.8301 25.6957V21.4321C74.8301 20.6986 74.6821 20.1553 74.3862 19.7981C74.0903 19.4408 73.6379 19.2633 73.0249 19.2633C72.693 19.2633 72.3865 19.3309 72.1033 19.4641C71.8221 19.5994 71.5833 19.7896 71.3867 20.0369C71.2451 20.2272 71.1415 20.4491 71.0781 20.7007C71.0146 20.9544 70.9829 21.3708 70.9829 21.95V25.6915H69.7886V21.4278C69.7886 20.6943 69.6406 20.1511 69.3447 19.7939C69.0488 19.4366 68.5964 19.2591 67.9855 19.2591C67.6536 19.2591 67.3429 19.3267 67.0554 19.4599C66.7679 19.5952 66.527 19.7854 66.3325 20.0327C66.1951 20.2166 66.0957 20.4301 66.0365 20.6732C65.9245 21.1192 65.8653 21.3412 65.9457 21.9457C66.0471 22.7152 66.0323 29.6021 65.9457 40.1205H64.7513V18.4495H65.9626V19.5656C66.2627 19.1005 66.6221 18.756 67.0385 18.5298C67.4549 18.3036 67.9348 18.1895 68.478 18.1895C69.0636 18.1895 69.5624 18.3142 69.9725 18.5657C70.3847 18.8173 70.6954 19.1808 70.9047 19.6607C71.2155 19.166 71.5833 18.7961 72.0081 18.553C72.433 18.3099 72.9234 18.1895 73.4836 18.1895C74.2911 18.1895 74.921 18.4156 75.3734 18.8701C75.8278 19.3246 76.054 19.9545 76.054 20.762V25.6893H74.828L74.8301 25.6957Z" fill="#1A2A49"/>
<path d="M78.2609 14.9698C78.2609 14.7225 78.3496 14.509 78.5272 14.3336C78.7027 14.156 78.9183 14.0693 79.1719 14.0693C79.4256 14.0693 79.6327 14.1581 79.8082 14.3378C79.9836 14.5175 80.0724 14.7331 80.0724 14.9867C80.0724 15.2404 79.9858 15.4454 79.8124 15.6188C79.6391 15.7921 79.4256 15.8788 79.1719 15.8788C78.9183 15.8788 78.7048 15.7921 78.5272 15.6188C78.3496 15.4454 78.2609 15.2277 78.2609 14.9698ZM78.5547 25.6954V18.4577H79.804V25.6954H78.5547Z" fill="#1A2A49"/>
<path d="M82.6049 19.4788H81.2753V18.4578H82.6049V15.5386H83.8711V18.4578H85.2007V19.4788H83.8711V25.6956H82.6049V19.4788Z" fill="#1A2A49"/>
<path d="M93.3451 18.4578V25.6955H92.1424V24.3828C91.8528 24.9113 91.4807 25.3129 91.0305 25.5898C90.5802 25.8668 90.075 26.0042 89.5149 26.0042C88.477 26.0042 87.6399 25.6469 87.0036 24.9324C86.3674 24.218 86.0503 23.2731 86.0503 22.0978C86.0503 20.9225 86.3589 19.9586 86.9762 19.2547C87.5934 18.5508 88.4178 18.1978 89.4514 18.1978C90.0581 18.1978 90.5845 18.333 91.0305 18.6057C91.4765 18.8763 91.8359 19.2822 92.1107 19.8191V18.4578H93.3451ZM92.1445 22.1443C92.1445 21.3262 91.9225 20.6688 91.4765 20.17C91.0305 19.6711 90.4492 19.4217 89.7326 19.4217C89.016 19.4217 88.4093 19.6521 87.9929 20.1108C87.5765 20.5695 87.3672 21.21 87.3672 22.0323C87.3672 22.9074 87.5765 23.5838 87.995 24.0573C88.4136 24.5329 89.0075 24.7697 89.7791 24.7697C90.5506 24.7697 91.096 24.5393 91.5146 24.0784C91.9331 23.6176 92.1424 22.9729 92.1424 22.1443H92.1445Z" fill="#1A2A49"/>
<path d="M95.0554 24.4778L96.1145 23.7654C96.3153 24.1502 96.5668 24.4398 96.8733 24.6321C97.1777 24.8245 97.5392 24.9217 97.9577 24.9217C98.3763 24.9217 98.6912 24.8224 98.9428 24.6215C99.1922 24.4207 99.319 24.1565 99.319 23.831C99.319 23.5773 99.2345 23.3659 99.0633 23.1989C98.892 23.0298 98.5982 22.8734 98.1818 22.7318C98.1395 22.717 98.0719 22.6916 97.9767 22.662C96.2159 22.0553 95.3344 21.2965 95.3344 20.3833C95.3344 19.7407 95.5712 19.2143 96.0468 18.8085C96.5224 18.4026 97.1376 18.1997 97.8985 18.1997C98.5263 18.1997 99.0633 18.3244 99.5135 18.576C99.9616 18.8275 100.283 19.1805 100.477 19.6392L99.4733 20.2565C99.3254 19.9246 99.1076 19.6688 98.8202 19.4891C98.5327 19.3095 98.1987 19.2207 97.8203 19.2207C97.4419 19.2207 97.1587 19.3222 96.9304 19.5251C96.7 19.728 96.5858 19.988 96.5858 20.303C96.5858 20.7469 97.0657 21.1168 98.0254 21.4191C98.205 21.4762 98.3467 21.5227 98.4524 21.5544C99.2387 21.808 99.7862 22.0955 100.093 22.421C100.401 22.7466 100.556 23.1736 100.556 23.7062C100.556 24.3911 100.313 24.9471 99.8242 25.372C99.3359 25.7968 98.6997 26.0082 97.9133 26.0082C97.239 26.0082 96.6641 25.8814 96.1927 25.6277C95.7213 25.3741 95.3429 24.9915 95.0575 24.4799L95.0554 24.4778Z" fill="#1A2A49"/>
<path d="M109.502 38.0689L110.562 37.357C110.763 37.742 111.016 38.032 111.322 38.2271C111.627 38.417 111.989 38.5119 112.405 38.5119C112.811 38.5119 113.138 38.4117 113.386 38.2113C113.639 38.0109 113.766 37.7472 113.766 37.4203C113.766 37.1671 113.679 36.9562 113.505 36.7874C113.336 36.6187 113.043 36.4631 112.627 36.3207C112.585 36.3049 112.516 36.2812 112.421 36.2495C110.66 35.6431 109.779 34.8837 109.779 33.9713C109.779 33.328 110.016 32.8033 110.491 32.3972C110.966 31.9911 111.583 31.7881 112.342 31.7881C112.97 31.7881 113.507 31.9147 113.956 32.1678C114.404 32.4156 114.726 32.769 114.921 33.2278L113.916 33.8448C113.769 33.5125 113.55 33.2568 113.26 33.0775C112.975 32.8982 112.643 32.8085 112.263 32.8085C111.899 32.8085 111.601 32.9114 111.369 33.117C111.142 33.3174 111.029 33.5758 111.029 33.8922C111.029 34.3352 111.509 34.707 112.469 35.0076C112.648 35.0656 112.79 35.1104 112.896 35.1421C113.682 35.3952 114.227 35.6853 114.533 36.0122C114.844 36.3339 115 36.7611 115 37.2937C115 37.9793 114.755 38.5356 114.264 38.9628C113.779 39.3847 113.144 39.5956 112.358 39.5956C111.683 39.5956 111.108 39.4691 110.633 39.2159C110.164 38.9628 109.787 38.5805 109.502 38.0689Z" fill="#1A2A49"/>
<path d="M106.583 35.7354C106.583 34.918 106.359 34.2614 105.911 33.7657C105.468 33.2647 104.888 33.0142 104.171 33.0142C103.427 33.0142 102.847 33.2436 102.43 33.7024C102.014 34.1612 101.805 34.8019 101.805 35.6246C101.805 36.5 102.014 37.1751 102.43 37.6497C102.852 38.1243 103.448 38.3616 104.218 38.3616C104.956 38.3616 105.534 38.1322 105.95 37.6734C106.372 37.2093 106.583 36.5633 106.583 35.7354ZM107.786 32.0491V39.2871H106.583V37.974C106.293 38.5014 105.921 38.9048 105.468 39.1843C105.02 39.4585 104.516 39.5956 103.957 39.5956C102.918 39.5956 102.08 39.2397 101.442 38.5277C100.809 37.8105 100.492 36.8639 100.492 35.6879C100.492 34.4961 100.801 33.5495 101.418 32.8481C102.035 32.1414 102.86 31.7881 103.894 31.7881C104.5 31.7881 105.025 31.9252 105.468 32.1994C105.916 32.4684 106.277 32.8718 106.552 33.4097V32.0491H107.786Z" fill="#1A2A49"/>
<path d="M99.3215 37.5706V39.0103C98.9945 39.2054 98.6254 39.3504 98.2141 39.4453C97.808 39.5455 97.3676 39.5956 96.893 39.5956C95.775 39.5956 94.8732 39.2423 94.1877 38.5356C93.5074 37.8237 93.1672 36.8903 93.1672 35.7354C93.1672 34.5752 93.5206 33.6286 94.2272 32.8955C94.9339 32.1572 95.8383 31.7881 96.9405 31.7881C97.3413 31.7881 97.7315 31.8303 98.1112 31.9147C98.4962 31.999 98.8574 32.123 99.1949 32.2864V33.6154C98.8785 33.4097 98.5516 33.2541 98.2141 33.1487C97.8765 33.0379 97.5338 32.9826 97.1857 32.9826C96.3736 32.9826 95.7223 33.2383 95.2318 33.7499C94.7414 34.2561 94.4962 34.9311 94.4962 35.7749C94.4962 36.5185 94.7414 37.1408 95.2318 37.6418C95.7276 38.1428 96.3472 38.3932 97.0908 38.3932C97.4652 38.3932 97.8317 38.3273 98.1903 38.1955C98.5489 38.0637 98.926 37.8553 99.3215 37.5706Z" fill="#1A2A49"/>
<path d="M89.6156 28.5615C89.6156 28.3136 89.7026 28.1026 89.8766 27.9286C90.0559 27.7493 90.2722 27.6597 90.5253 27.6597C90.7732 27.6597 90.9841 27.7493 91.1581 27.9286C91.3374 28.1079 91.4271 28.3241 91.4271 28.5773C91.4271 28.8251 91.3401 29.0361 91.166 29.2101C90.992 29.3841 90.7784 29.4711 90.5253 29.4711C90.2722 29.4711 90.0559 29.3841 89.8766 29.2101C89.7026 29.0361 89.6156 28.8199 89.6156 28.5615ZM89.9083 39.2879V32.0499H91.1581V39.2879H89.9083Z" fill="#1A2A49"/>
<path d="M85.8424 33.0702H84.5134V32.0498H85.8424V29.1309H87.108V32.0498H88.437V33.0702H87.108V39.2878H85.8424V33.0702Z" fill="#1A2A49"/>
<path d="M81.9662 35.7354C81.9662 34.918 81.7421 34.2614 81.2939 33.7657C80.8509 33.2647 80.2708 33.0142 79.5536 33.0142C78.81 33.0142 78.2299 33.2436 77.8133 33.7024C77.3967 34.1612 77.1884 34.8019 77.1884 35.6246C77.1884 36.5 77.3967 37.1751 77.8133 37.6497C78.2352 38.1243 78.8311 38.3616 79.601 38.3616C80.3393 38.3616 80.9168 38.1322 81.3334 37.6734C81.7553 37.2093 81.9662 36.5633 81.9662 35.7354ZM83.1686 32.0491V39.2871H81.9662V37.974C81.6762 38.5014 81.3044 38.9048 80.8509 39.1843C80.4026 39.4585 79.899 39.5956 79.34 39.5956C78.3011 39.5956 77.4626 39.2397 76.8245 38.5277C76.1917 37.8105 75.8752 36.8639 75.8752 35.6879C75.8752 34.4961 76.1837 33.5495 76.8008 32.8481C77.4178 32.1414 78.2431 31.7881 79.2767 31.7881C79.8832 31.7881 80.4079 31.9252 80.8509 32.1994C81.2991 32.4684 81.6604 32.8718 81.9346 33.4097V32.0491H83.1686Z" fill="#1A2A49"/>
<path d="M71.5325 39.7382L67.9491 32.0493H69.3413L71.5167 37.104L73.6999 32.0493H75.0922L71.5325 39.7382Z" fill="#1A2A49"/>
<path d="M61.17 34.8496C61.1278 34.2115 60.9142 33.7211 60.5292 33.3783C60.1495 33.0302 59.6275 32.8562 58.963 32.8562C58.3618 32.8562 57.8608 33.0381 57.46 33.402C57.0592 33.7606 56.8272 34.2431 56.7639 34.8496H61.17ZM62.4989 35.8542H56.7639V35.965C56.7639 36.7402 56.9854 37.3677 57.4284 37.8476C57.8714 38.3223 58.4488 38.5596 59.1607 38.5596C59.6459 38.5596 60.0836 38.4304 60.4739 38.172C60.8641 37.9083 61.2095 37.5128 61.5101 36.9854L62.4515 37.6182C62.0876 38.2722 61.6235 38.7652 61.0592 39.0975C60.495 39.4297 59.841 39.5958 59.0975 39.5958C57.9953 39.5958 57.1041 39.2319 56.4238 38.5042C55.7435 37.7764 55.4033 36.8219 55.4033 35.6406C55.4033 34.5068 55.7408 33.5787 56.4158 32.8562C57.0909 32.1337 57.9584 31.7725 59.0184 31.7725C60.0889 31.7725 60.9353 32.1152 61.5576 32.8008C62.1851 33.4864 62.4989 34.4224 62.4989 35.609V35.8542Z" fill="#1A2A49"/>
<path d="M52.0414 32.8562C52.7955 33.1779 53.3625 33.6051 53.7422 34.1377C54.1271 34.6703 54.3196 35.3005 54.3196 36.0283C54.3196 37.0935 53.9795 37.9531 53.2992 38.607C52.6242 39.2557 51.7276 39.58 50.6096 39.58C49.6973 39.58 48.9326 39.348 48.3156 38.8839C47.6986 38.4146 47.282 37.7501 47.0658 36.8905L48.3156 36.2735C48.4844 36.9749 48.7613 37.5075 49.1462 37.8714C49.5365 38.23 50.0243 38.4093 50.6096 38.4093C51.3005 38.4093 51.8595 38.2115 52.2866 37.816C52.7138 37.4152 52.9274 36.8958 52.9274 36.2577C52.9274 35.7409 52.7771 35.2926 52.4765 34.9129C52.1812 34.5279 51.7329 34.2036 51.1317 33.9399L49.7237 33.3387C48.9537 33.017 48.3789 32.6031 47.9992 32.0968C47.6248 31.5905 47.4376 30.9841 47.4376 30.2774C47.4376 29.4547 47.7435 28.7745 48.3552 28.2365C48.9669 27.6986 49.7474 27.4297 50.6967 27.4297C51.3928 27.4297 51.994 27.5773 52.5002 27.8727C53.0118 28.168 53.4099 28.6031 53.6947 29.1779L52.5556 29.9056C52.2972 29.4574 52.0071 29.1251 51.6855 28.9089C51.3638 28.6874 50.9999 28.5767 50.5938 28.5767C50.077 28.5767 49.6525 28.7349 49.3203 29.0513C48.9933 29.3677 48.8298 29.7712 48.8298 30.2616C48.8298 30.6729 48.9564 31.0289 49.2095 31.3295C49.4626 31.6301 49.8555 31.8964 50.3882 32.1284L52.0414 32.8562Z" fill="#1A2A49"/>
<path d="M27.5289 32.817C29.7569 35.7996 31.9849 38.7822 34.2129 41.7648C36.3584 44.6354 38.5018 47.5081 40.6474 50.3787C41.3027 51.256 41.958 52.1332 42.6132 53.0105C38.988 53.0274 37.0327 53.021 35.9018 53.0105C35.6904 53.0105 34.439 52.9978 32.8431 52.9935C32.4415 52.9935 31.9828 52.9935 31.3803 52.9935C30.4777 52.9978 29.7357 53.0041 29.2369 53.0105C24.2905 46.3793 19.3441 39.7482 14.3977 33.1171C14.2773 32.9649 14.0849 32.7218 13.8545 32.4175C13.5416 32.0074 13.4423 31.8594 13.2034 31.5466C13.0386 31.3309 12.7997 31.0223 12.4953 30.6566C15.7654 30.6757 18.0061 30.6735 19.4836 30.6672C20.1136 30.6651 22.2316 30.6566 25.1403 30.6566C25.7279 30.6566 25.7131 30.6566 25.7237 30.6566C28.3744 30.5953 31.7058 29.2615 34.0078 26.6023C35.6714 24.6829 36.2273 22.7297 36.593 21.4509C36.9164 20.32 37.7451 17.2634 36.7938 13.5134C36.5212 12.4417 35.4727 8.31126 31.7946 5.75985C31.2154 5.35822 28.905 3.75382 25.7533 3.62488C25.6434 3.62065 25.5609 3.61854 25.5123 3.61854H1.13342C1.13342 3.35008 1.13342 3.03512 1.13342 2.76666C1.13342 2.17267 1.13342 1.57868 1.13342 0.984696C16.0148 1.08405 22.3458 1.05445 24.7978 0.984696C24.9056 0.982582 25.1868 0.974126 25.5694 0.984696C29.6153 1.10518 32.5662 3.1852 33.4075 3.79399C35.3438 5.19335 36.4937 6.72376 36.9904 7.44458C38.5061 9.64509 39.0218 11.6659 39.2924 12.7672C40.3366 17.0182 39.5292 20.525 39.2459 21.6031C38.7809 23.3787 37.8825 26.8094 34.6969 29.5786C31.9426 31.9735 28.9261 32.6162 27.5331 32.8191L27.5289 32.817ZM37.6394 50.4527C33.4286 44.7242 29.22 38.9957 25.0092 33.2672H20.2531C19.49 33.2588 18.7227 33.2566 17.9532 33.2609C17.8898 33.2609 17.8264 33.2609 17.763 33.2609C22.0414 38.9915 26.3177 44.7221 30.5961 50.4506H37.6394V50.4527Z" fill="#1A2A49"/>
<path d="M4.90655 46.0725C5.39274 43.0687 5.54705 40.5807 5.75421 37.2726C5.8303 36.0508 5.88738 34.8205 5.88738 34.8205C5.88738 34.4844 5.94656 33.548 5.95502 33.1167C6.0142 30.6288 5.36103 28.424 5.23843 28.0203C4.94883 27.0691 4.45631 25.7606 3.58752 24.319C2.99988 23.9744 1.36588 22.9133 0.51189 20.8015C-0.0165694 19.4952 -0.0292549 18.322 0.0172495 17.6456C0.626034 17.7555 1.62588 18.0303 2.55809 18.8018C4.7607 20.6219 4.60639 23.5601 4.58314 23.9237C5.17713 24.9869 5.82607 26.3652 6.33339 28.0393C6.75405 29.426 6.97812 30.6901 7.09649 31.7533C7.46853 30.3159 7.81731 29.185 8.07097 28.4092C8.2126 27.9717 8.64593 26.6505 9.10252 24.9785C9.22512 24.5325 9.24838 24.4268 9.26952 24.3105C9.53163 22.9133 9.21456 21.776 9.05813 21.2412C8.65439 19.8566 7.92723 18.8906 7.45162 18.3558C6.9908 18.1381 5.81339 17.5103 5.00379 16.1278C4.03354 14.4748 4.24069 12.8493 4.31679 12.3863C4.64444 12.4582 6.78998 12.9592 7.88283 15.0244C8.59097 16.3604 8.48317 17.6413 8.41553 18.136C8.7939 18.7236 9.21878 19.4994 9.56756 20.457C9.88041 21.311 10.0516 22.091 10.1489 22.7294C11.2459 20.4041 12.0069 18.6687 12.1908 18.1212C12.3092 17.7745 12.4064 17.4384 12.4614 17.0516C12.4699 16.9924 12.4952 16.7852 12.5016 16.5739C12.51 16.2208 12.4614 15.7769 12.0809 14.756C11.9414 14.3839 11.7469 13.9062 11.4848 13.3629C11.1825 13.253 9.93326 12.7584 9.19764 11.3802C8.42186 9.92584 8.77699 8.53705 8.85732 8.24534C9.18919 8.33201 10.4533 8.70405 11.3326 9.97446C12.2627 11.3167 12.1084 12.7182 12.064 13.0395C12.2458 13.4052 12.4255 13.8195 12.5861 14.2782C12.9286 15.2527 13.0829 16.1469 13.1505 16.8783C13.9432 15.8277 14.9642 14.6693 16.2663 13.5426C16.7715 13.1051 17.2683 12.7161 17.7523 12.3673C17.7439 12.1221 17.7016 9.62991 19.7732 8.03396C21.6524 6.58809 23.7873 7.02143 24.0875 7.08696C24.041 7.61119 23.8212 9.37202 22.3732 10.8813C20.7392 12.5829 18.6993 12.7605 18.2258 12.7901C17.7206 13.1854 17.2049 13.6293 16.6912 14.1282C14.552 16.2061 13.2393 18.4573 12.4234 20.2836C12.9687 19.8926 13.7043 19.4508 14.6239 19.0872C15.2538 18.8378 15.8393 18.6814 16.3424 18.5778C16.5073 18.3516 17.5811 16.929 19.5406 16.7345C21.2803 16.5633 22.5064 17.4807 22.7642 17.6836C22.5085 18.0155 21.5784 19.1422 19.8979 19.5396C18.1265 19.9602 16.725 19.2838 16.3699 19.0999C13.5754 19.8334 12.4382 21.2454 12.0175 21.8754C11.5419 22.5877 11.21 23.4692 10.745 24.6783C10.3264 25.7627 10.0474 26.6928 9.86773 27.3565C10.4258 26.8704 11.1952 26.2996 12.1845 25.8029C12.9053 25.4414 13.5775 25.2004 14.1504 25.0377C14.5457 24.4564 15.3405 23.4777 16.6743 22.8224C19.4265 21.4695 22.1597 22.6279 22.5951 22.8224C22.1914 23.3931 21.1683 24.6783 19.3356 25.4435C17.1224 26.3673 15.1439 25.9382 14.5013 25.7712C13.8206 25.9107 12.732 26.2278 11.6814 27.0289C9.79374 28.4726 9.15537 30.6076 8.56772 32.7236C8.32886 33.5839 8.02869 35.0847 7.81096 36.6511C7.8004 36.7314 7.78983 36.8096 7.77926 36.8815C7.77926 36.8815 7.74755 37.1119 7.72007 37.3444C7.31633 40.6505 7.1134 46.2331 7.1134 46.2331C7.1134 48.1715 7.1134 50.2198 8.06463 51.5156C8.3817 51.9468 9.06659 52.6528 10.5632 53.0122H1.03823C1.55612 52.7627 2.28751 52.3315 2.96605 51.6086C3.82004 50.6975 4.33582 49.5878 4.90444 46.0788L4.90655 46.0725Z" fill="#1A2A49"/>
</svg>
